<?xml version="1.0" encoding="utf-8"?>
<!-- Generator: Adobe Illustrator 21.1.0, SVG Export Plug-In . SVG Version: 6.00 Build 0)  -->
<svg version="1.1" id="Icons" xmlns="http://www.w3.org/2000/svg" xmlns:xlink="http://www.w3.org/1999/xlink" x="0px" y="0px"
	 viewBox="0 0 48 48" style="enable-background:new 0 0 48 48;" xml:space="preserve">
<style type="text/css">
	.st0{opacity:0.15;fill:#45413C;}
	.st1{fill:#FFE500;}
	.st2{fill:#EBCB00;}
	.st3{fill:none;stroke:#45413C;stroke-linecap:round;stroke-linejoin:round;stroke-miterlimit:10;}
	.st4{fill:#FFAA54;}
	.st5{fill:#FF8A14;}
	.st6{fill:#FFB0CA;stroke:#45413C;stroke-linecap:round;stroke-linejoin:round;stroke-miterlimit:10;}
	.st7{fill:#FF87AF;stroke:#45413C;stroke-linecap:round;stroke-linejoin:round;stroke-miterlimit:10;}
	.st8{fill:#FFCC99;}
	.st9{fill:#FFFFFF;}
	.st10{fill:#F0F0F0;}
	.st11{fill:#BF8256;}
	.st12{fill:#915E3A;}
	.st13{fill:#DEA47A;}
	.st14{fill:#F0D5A8;}
	.st15{fill:#DEBB7E;}
	.st16{fill:#F7E5C6;}
	.st17{fill:#FF8A14;stroke:#45413C;stroke-linecap:round;stroke-linejoin:round;stroke-miterlimit:10;}
	.st18{fill:#FFF5E3;}
	.st19{fill:#FFF48C;}
	.st20{fill:#FFFACF;}
	.st21{fill:#FFFCE5;}
	.st22{fill:#FF87AF;}
	.st23{fill:#FFB0CA;}
	.st24{fill:#FFE500;stroke:#45413C;stroke-linecap:round;stroke-linejoin:round;stroke-miterlimit:10;}
	.st25{fill:#9CEB60;stroke:#45413C;stroke-linecap:round;stroke-linejoin:round;stroke-miterlimit:10;}
	.st26{fill:#FFFACF;stroke:#45413C;stroke-linecap:round;stroke-linejoin:round;stroke-miterlimit:10;}
	.st27{fill:#00F5BC;stroke:#45413C;stroke-linecap:round;stroke-linejoin:round;stroke-miterlimit:10;}
	.st28{fill:#BF8256;stroke:#45413C;stroke-linecap:round;stroke-linejoin:round;stroke-miterlimit:10;}
	.st29{fill:#FFE3CF;stroke:#45413C;stroke-linecap:round;stroke-linejoin:round;stroke-miterlimit:10;}
	.st30{fill:#FF6242;}
	.st31{fill:#FF866E;}
	.st32{fill:none;stroke:#E04122;stroke-linecap:round;stroke-linejoin:round;stroke-miterlimit:10;}
	.st33{fill:#FFFEF2;stroke:#45413C;stroke-linecap:round;stroke-linejoin:round;stroke-miterlimit:10;}
	.st34{fill:#FF6242;stroke:#45413C;stroke-linecap:round;stroke-linejoin:round;stroke-miterlimit:10;}
	.st35{fill:#FFA694;}
	.st36{fill:#FFFFFF;stroke:#45413C;stroke-linecap:round;stroke-linejoin:round;stroke-miterlimit:10;}
	.st37{fill:#FFFEF2;}
	.st38{fill:#FF6196;}
	.st39{fill:#B89558;}
	.st40{fill:none;stroke:#915E3A;stroke-linecap:round;stroke-linejoin:round;stroke-miterlimit:10;}
	.st41{fill:#DEBB7E;stroke:#45413C;stroke-linecap:round;stroke-linejoin:round;stroke-miterlimit:10;}
	.st42{fill:#6DD627;stroke:#45413C;stroke-linecap:round;stroke-linejoin:round;stroke-miterlimit:10;}
	.st43{fill:#E5F8FF;}
	.st44{fill:#E8F4FA;}
	.st45{fill:#E8F4FA;stroke:#45413C;stroke-linecap:round;stroke-linejoin:round;stroke-miterlimit:10;}
	.st46{fill:#FFCCDD;}
	.st47{fill:#E5F8FF;stroke:#45413C;stroke-linecap:round;stroke-linejoin:round;stroke-miterlimit:10;}
	.st48{fill:#00B8F0;stroke:#45413C;stroke-linecap:round;stroke-linejoin:round;stroke-miterlimit:10;}
	.st49{fill:#00B8F0;}
	.st50{fill:#4ACFFF;}
	.st51{fill:#E04122;}
	.st52{fill:#E04122;stroke:#45413C;stroke-linecap:round;stroke-linejoin:round;stroke-miterlimit:10;}
	.st53{fill:#87898C;}
	.st54{fill:#BDBEC0;}
	.st55{fill:#656769;}
	.st56{fill:#525252;}
	.st57{fill:#FFF48C;stroke:#45413C;stroke-linecap:round;stroke-linejoin:round;stroke-miterlimit:10;}
	.st58{fill:#6DD627;}
	.st59{fill:#EB6D00;}
	.st60{fill:#46B000;}
	.st61{fill:#80DDFF;}
	.st62{fill:#DAEDF7;}
	.st63{fill:#BF8DF2;stroke:#45413C;stroke-linecap:round;stroke-linejoin:round;stroke-miterlimit:10;}
	.st64{fill:#9F5AE5;stroke:#45413C;stroke-linecap:round;stroke-linejoin:round;stroke-miterlimit:10;}
	.st65{fill:#C8FFA1;}
	.st66{fill:#E4FFD1;}
	.st67{fill:#9CEB60;}
	.st68{fill:#E5FEFF;}
	.st69{fill:#B8ECFF;}
	.st70{fill:#E0E0E0;stroke:#45413C;stroke-linecap:round;stroke-linejoin:round;stroke-miterlimit:10;}
	.st71{fill:#E0E0E0;}
	.st72{fill:none;stroke:#4F4B45;stroke-linejoin:round;stroke-miterlimit:10;}
	.st73{fill:none;stroke:#4F4B45;stroke-linecap:round;stroke-linejoin:round;stroke-miterlimit:10;}
	.st74{fill:#E0366F;stroke:#45413C;stroke-linecap:round;stroke-linejoin:round;stroke-miterlimit:10;}
	.st75{fill:none;stroke:#45413C;stroke-miterlimit:10;}
	.st76{fill:#FF866E;stroke:#45413C;stroke-linecap:round;stroke-linejoin:round;stroke-miterlimit:10;}
	.st77{fill:#45413C;stroke:#45413C;stroke-linecap:round;stroke-linejoin:round;stroke-miterlimit:10;}
	.st78{fill:#9F5AE5;}
	.st79{fill:#803EC2;}
	.st80{fill:#803EC2;stroke:#45413C;stroke-linecap:round;stroke-linejoin:round;stroke-miterlimit:10;}
	.st81{fill:#BF8DF2;}
	.st82{fill:#FFAA54;stroke:#45413C;stroke-linecap:round;stroke-linejoin:round;stroke-miterlimit:10;}
	.st83{fill:none;stroke:#45413C;stroke-linejoin:round;stroke-miterlimit:10;}
	.st84{fill:#FFCCDD;stroke:#45413C;stroke-linecap:round;stroke-linejoin:round;stroke-miterlimit:10;}
	.st85{fill:#FF6196;stroke:#45413C;stroke-linecap:round;stroke-linejoin:round;stroke-miterlimit:10;}
	.st86{fill:#FFE5EE;}
	.st87{fill:#F7E5C6;stroke:#45413C;stroke-linecap:round;stroke-linejoin:round;stroke-miterlimit:10;}
	.st88{fill:#E5FFF9;}
	.st89{fill:none;stroke:#45413C;stroke-width:1.0064;stroke-linecap:round;stroke-linejoin:round;stroke-miterlimit:10;}
	.st90{fill:#4AEFF7;}
	.st91{fill:#A6FBFF;}
	.st92{fill:#E5FEFF;stroke:#45413C;stroke-linecap:round;stroke-linejoin:round;stroke-miterlimit:10;}
	.st93{fill:#46B000;stroke:#45413C;stroke-linecap:round;stroke-linejoin:round;stroke-miterlimit:10;}
	.st94{fill:#FFFFFF;stroke:#45413C;stroke-linejoin:round;stroke-miterlimit:10;}
	.st95{fill:#FFFFFF;stroke:#45413C;stroke-miterlimit:10;}
	.st96{fill:#009FD9;}
	.st97{fill:#00DFEB;}
	.st98{fill:#C0DCEB;stroke:#45413C;stroke-linecap:round;stroke-linejoin:round;stroke-miterlimit:10;}
	.st99{fill:#00DFEB;stroke:#45413C;stroke-linecap:round;stroke-linejoin:round;stroke-miterlimit:10;}
	.st100{fill:#FFE5EE;stroke:#45413C;stroke-linecap:round;stroke-linejoin:round;stroke-miterlimit:10;}
	.st101{fill:#8CA4B8;}
	.st102{fill:#ADC4D9;}
	.st103{fill:#656769;stroke:#45413C;stroke-linecap:round;stroke-linejoin:round;stroke-miterlimit:10;}
	.st104{fill:#F0F0F0;stroke:#45413C;stroke-linecap:round;stroke-linejoin:round;stroke-miterlimit:10;}
	.st105{fill:#C0DCEB;}
	.st106{fill:#45413C;}
	.st107{fill:#FFCABF;}
	.st108{fill:#87898C;stroke:#45413C;stroke-linecap:round;stroke-linejoin:round;stroke-miterlimit:10;}
	.st109{fill:#EBCB00;stroke:#45413C;stroke-linecap:round;stroke-linejoin:round;stroke-miterlimit:10;}
</style>
<g id="XMLID_14513_">
	<ellipse id="XMLID_14525_" class="st0" cx="24" cy="45.5" rx="11.5" ry="1.5"/>
	<circle id="XMLID_14524_" class="st49" cx="24" cy="22.8" r="19.7"/>
	<path id="XMLID_14523_" class="st96" d="M41.3,13.6c0.5,1.7,0.8,3.4,0.8,5.3C42.1,28.8,34,37,24,37S5.9,28.8,5.9,18.8
		c0-1.8,0.3-3.6,0.8-5.3c-1.5,2.8-2.3,5.9-2.3,9.3c0,10.9,8.8,19.7,19.7,19.7s19.7-8.8,19.7-19.7C43.7,19.5,42.8,16.3,41.3,13.6z"/>
	<circle id="XMLID_14522_" class="st3" cx="24" cy="22.8" r="19.7"/>
	<path id="XMLID_14521_" class="st58" d="M25.2,23.5l-1.1,2c-0.1,0.1-0.1,0.2-0.2,0.3L23,26.5c-0.3,0.3-0.5,0.8-0.3,1.2l1.5,3.1
		c0.1,0.3,0.4,0.5,0.7,0.5l0.6,0.1c0.5,0.1,0.9,0.7,0.7,1.2l-1.3,5.1c0,0.1,0,0.3,0,0.5l0.1,0.5c0.2,0.7,1,1,1.6,0.6l6.3-5.3
		c0.1-0.1,0.3-0.2,0.5-0.2l1.1-0.2c0.3-0.1,0.6-0.3,0.7-0.5l2-4c0.3-0.5,0-1.1-0.5-1.4l-3.2-1.4c-0.2-0.1-0.4-0.3-0.5-0.5l-0.7-1.4
		c-0.1-0.3-0.4-0.5-0.7-0.5L26.2,23C25.8,22.9,25.4,23.1,25.2,23.5z"/>
	<g id="XMLID_14518_">
		<path id="XMLID_14520_" class="st60" d="M26.6,39.5l5-4.2c-2,0.9-4.2,1.5-6.4,1.6l-0.3,1c0,0.1,0,0.3,0,0.5l0.1,0.5
			C25.1,39.6,26,39.9,26.6,39.5z"/>
		<path id="XMLID_14519_" class="st60" d="M35.1,33.3l0.1-0.2c-0.4,0.3-0.7,0.6-1.1,0.8l0.2,0C34.7,33.7,35,33.5,35.1,33.3z"/>
	</g>
	<path id="XMLID_14517_" class="st3" d="M25.2,23.5l-1.1,2c-0.1,0.1-0.1,0.2-0.2,0.3L23,26.5c-0.3,0.3-0.5,0.8-0.3,1.2l1.5,3.1
		c0.1,0.3,0.4,0.5,0.7,0.5l0.6,0.1c0.5,0.1,0.9,0.7,0.7,1.2l-1.3,5.1c0,0.1,0,0.3,0,0.5l0.1,0.5c0.2,0.7,1,1,1.6,0.6l6.3-5.3
		c0.1-0.1,0.3-0.2,0.5-0.2l1.1-0.2c0.3-0.1,0.6-0.3,0.7-0.5l2-4c0.3-0.5,0-1.1-0.5-1.4l-3.2-1.4c-0.2-0.1-0.4-0.3-0.5-0.5l-0.7-1.4
		c-0.1-0.3-0.4-0.5-0.7-0.5L26.2,23C25.8,22.9,25.4,23.1,25.2,23.5z"/>
	<path id="XMLID_14516_" class="st42" d="M22.4,9.8l-2-1.2c-0.5-0.3-0.7-1-0.3-1.5L20.3,7c0.4-0.5,0.2-1.3-0.5-1.5l-2.5-0.8
		c-0.2-0.1-0.5-0.1-0.7,0c-2,0.8-3.9,2-5.5,3.4c-0.2,0.2-0.3,0.4-0.3,0.7l-0.4,5.3c0,0.2,0,0.5,0.2,0.7l3.9,5.3
		c0.1,0.2,0.3,0.3,0.4,0.3l5.1,1.9c0.1,0,0.1,0,0.2,0.1l2.6,1.6c0.3,0.2,0.6,0.2,0.8,0.1l1-0.3l-2.6-2.3c-0.1-0.1-0.1-0.1-0.2-0.1
		l-3.3-1.6c-0.3-0.1-0.5-0.4-0.6-0.7l-0.1-0.7c-0.1-0.6,0.4-1.2,1.1-1.2l3.3,0.3c0.3,0,0.6-0.1,0.8-0.3l3.3-3.9
		c0.2-0.2,0.4-0.3,0.6-0.3l2.5-0.3c0.5-0.1,0.9-0.5,0.9-1v-0.8c0-0.4-0.2-0.7-0.5-0.9l-3.9-2c-0.6-0.3-1.2,0-1.4,0.6l-0.3,1
		C23.7,9.9,23,10.1,22.4,9.8z"/>
	<path id="XMLID_14515_" class="st42" d="M24,3.2c-0.8,0-1.6,0.1-2.4,0.2l7,3c0.1,0.1,0.3,0.1,0.5,0.1l3.2-0.3l0.5-1
		C30,3.9,27.1,3.2,24,3.2z"/>
	<path id="XMLID_14514_" class="st42" d="M28.8,19L26,18.1c-0.2-0.1-0.5,0-0.6,0.3l-0.6,1.5c-0.2,0.4,0.1,0.7,0.5,0.7l2.1-0.3
		c0.1,0,0.2-0.1,0.3-0.2L28.8,19z"/>
</g>
</svg>
