<svg id="visual" viewBox="0 0 900 450" width="900" height="450" xmlns="http://www.w3.org/2000/svg" xmlns:xlink="http://www.w3.org/1999/xlink" version="1.1"><rect x="0" y="0" width="900" height="450" fill="#FAF0CA"></rect><defs><linearGradient id="grad1_0" x1="50%" y1="0%" x2="100%" y2="100%"><stop offset="10%" stop-color="#faf0ca" stop-opacity="1"></stop><stop offset="90%" stop-color="#faf0ca" stop-opacity="1"></stop></linearGradient></defs><defs><linearGradient id="grad2_0" x1="0%" y1="0%" x2="50%" y2="100%"><stop offset="10%" stop-color="#faf0ca" stop-opacity="1"></stop><stop offset="90%" stop-color="#faf0ca" stop-opacity="1"></stop></linearGradient></defs><g transform="translate(900, 0)"><path d="M0 292.5C-48.5 280.7 -96.9 268.8 -142 246C-187.1 223.1 -228.8 189.1 -253.3 146.3C-277.8 103.4 -285.2 51.7 -292.5 0L0 0Z" fill="#EE964B"></path></g><g transform="translate(0, 450)"><path d="M0 -292.5C41.3 -268.2 82.5 -243.9 128.5 -222.6C174.5 -201.2 225.2 -182.9 253.3 -146.3C281.4 -109.6 287 -54.8 292.5 0L0 0Z" fill="#EE964B"></path></g></svg>