<?xml version="1.0" standalone="no"?>
<svg xmlns:xlink="http://www.w3.org/1999/xlink" id="wave" style="transform:rotate(0deg); transition: 0.3s" viewBox="0 0 1440 410" version="1.1" xmlns="http://www.w3.org/2000/svg"><defs><linearGradient id="sw-gradient-0" x1="0" x2="0" y1="1" y2="0"><stop stop-color="#F4D35E" offset="0%"/><stop stop-color="rgba(255, 179, 11, 1)" offset="100%"/></linearGradient></defs><path style="transform:translate(0, 0px); opacity:1" fill="url(#sw-gradient-0)" d="M0,205L80,177.7C160,150,320,96,480,109.3C640,123,800,205,960,225.5C1120,246,1280,205,1440,157.2C1600,109,1760,55,1920,27.3C2080,0,2240,0,2400,0C2560,0,2720,0,2880,6.8C3040,14,3200,27,3360,88.8C3520,150,3680,260,3840,287C4000,314,4160,260,4320,259.7C4480,260,4640,314,4800,287C4960,260,5120,150,5280,150.3C5440,150,5600,260,5760,259.7C5920,260,6080,150,6240,150.3C6400,150,6560,260,6720,293.8C6880,328,7040,287,7200,232.3C7360,178,7520,109,7680,68.3C7840,27,8000,14,8160,47.8C8320,82,8480,164,8640,211.8C8800,260,8960,273,9120,239.2C9280,205,9440,123,9600,116.2C9760,109,9920,178,10080,184.5C10240,191,10400,137,10560,116.2C10720,96,10880,109,11040,150.3C11200,191,11360,260,11440,293.8L11520,328L11520,410L11440,410C11360,410,11200,410,11040,410C10880,410,10720,410,10560,410C10400,410,10240,410,10080,410C9920,410,9760,410,9600,410C9440,410,9280,410,9120,410C8960,410,8800,410,8640,410C8480,410,8320,410,8160,410C8000,410,7840,410,7680,410C7520,410,7360,410,7200,410C7040,410,6880,410,6720,410C6560,410,6400,410,6240,410C6080,410,5920,410,5760,410C5600,410,5440,410,5280,410C5120,410,4960,410,4800,410C4640,410,4480,410,4320,410C4160,410,4000,410,3840,410C3680,410,3520,410,3360,410C3200,410,3040,410,2880,410C2720,410,2560,410,2400,410C2240,410,2080,410,1920,410C1760,410,1600,410,1440,410C1280,410,1120,410,960,410C800,410,640,410,480,410C320,410,160,410,80,410L0,410Z"/><defs><linearGradient id="sw-gradient-1" x1="0" x2="0" y1="1" y2="0"><stop stop-color="rgba(238, 150, 75, 1)" offset="0%"/><stop stop-color="rgba(238, 150, 75, 1)" offset="100%"/></linearGradient></defs><path style="transform:translate(0, 50px); opacity:0.9" fill="url(#sw-gradient-1)" d="M0,0L80,20.5C160,41,320,82,480,143.5C640,205,800,287,960,300.7C1120,314,1280,260,1440,211.8C1600,164,1760,123,1920,116.2C2080,109,2240,137,2400,170.8C2560,205,2720,246,2880,266.5C3040,287,3200,287,3360,259.7C3520,232,3680,178,3840,136.7C4000,96,4160,68,4320,82C4480,96,4640,150,4800,198.2C4960,246,5120,287,5280,287C5440,287,5600,246,5760,218.7C5920,191,6080,178,6240,170.8C6400,164,6560,164,6720,177.7C6880,191,7040,219,7200,198.2C7360,178,7520,109,7680,129.8C7840,150,8000,260,8160,293.8C8320,328,8480,287,8640,273.3C8800,260,8960,273,9120,273.3C9280,273,9440,260,9600,273.3C9760,287,9920,328,10080,314.3C10240,301,10400,232,10560,170.8C10720,109,10880,55,11040,34.2C11200,14,11360,27,11440,34.2L11520,41L11520,410L11440,410C11360,410,11200,410,11040,410C10880,410,10720,410,10560,410C10400,410,10240,410,10080,410C9920,410,9760,410,9600,410C9440,410,9280,410,9120,410C8960,410,8800,410,8640,410C8480,410,8320,410,8160,410C8000,410,7840,410,7680,410C7520,410,7360,410,7200,410C7040,410,6880,410,6720,410C6560,410,6400,410,6240,410C6080,410,5920,410,5760,410C5600,410,5440,410,5280,410C5120,410,4960,410,4800,410C4640,410,4480,410,4320,410C4160,410,4000,410,3840,410C3680,410,3520,410,3360,410C3200,410,3040,410,2880,410C2720,410,2560,410,2400,410C2240,410,2080,410,1920,410C1760,410,1600,410,1440,410C1280,410,1120,410,960,410C800,410,640,410,480,410C320,410,160,410,80,410L0,410Z"/></svg>