<svg xmlns="http://www.w3.org/2000/svg" viewBox="0 0 1440 320"><path fill="#faf0ca" fill-opacity="1" d="M0,160L26.7,165.3C53.3,171,107,181,160,208C213.3,235,267,277,320,277.3C373.3,277,427,235,480,213.3C533.3,192,587,192,640,176C693.3,160,747,128,800,144C853.3,160,907,224,960,218.7C1013.3,213,1067,139,1120,117.3C1173.3,96,1227,128,1280,144C1333.3,160,1387,160,1413,160L1440,160L1440,0L1413.3,0C1386.7,0,1333,0,1280,0C1226.7,0,1173,0,1120,0C1066.7,0,1013,0,960,0C906.7,0,853,0,800,0C746.7,0,693,0,640,0C586.7,0,533,0,480,0C426.7,0,373,0,320,0C266.7,0,213,0,160,0C106.7,0,53,0,27,0L0,0Z"></path></svg>