<svg xmlns="http://www.w3.org/2000/svg" viewBox="0 0 1440 320"><path fill="#F95738" fill-opacity="1" d="M0,256L26.7,218.7C53.3,181,107,107,160,101.3C213.3,96,267,160,320,154.7C373.3,149,427,75,480,58.7C533.3,43,587,85,640,128C693.3,171,747,213,800,229.3C853.3,245,907,235,960,197.3C1013.3,160,1067,96,1120,90.7C1173.3,85,1227,139,1280,176C1333.3,213,1387,235,1413,245.3L1440,256L1440,320L1413.3,320C1386.7,320,1333,320,1280,320C1226.7,320,1173,320,1120,320C1066.7,320,1013,320,960,320C906.7,320,853,320,800,320C746.7,320,693,320,640,320C586.7,320,533,320,480,320C426.7,320,373,320,320,320C266.7,320,213,320,160,320C106.7,320,53,320,27,320L0,320Z"></path></svg>