<svg width="100%" height="100%" id="svg" viewBox="0 0 1440 700" xmlns="http://www.w3.org/2000/svg" class="transition duration-300 ease-in-out delay-150"><defs><linearGradient id="gradient" x1="0%" y1="50%" x2="100%" y2="50%"><stop offset="5%" stop-color="#eb144cff"></stop><stop offset="95%" stop-color="#fcb900ff"></stop></linearGradient></defs><path d="M 0,700 C 0,700 0,350 0,350 C 46.91013508155119,351.7919188981998 93.82027016310238,353.58383779639956 146,364 C 198.17972983689762,374.41616220360044 255.62905442914166,393.45656771260144 301,371 C 346.37094557085834,348.54343228739856 379.66351212033095,284.5898913531946 430,266 C 480.33648787966905,247.41010864680536 547.7168970895344,274.1838668746199 591,278 C 634.2831029104656,281.8161331253801 653.4688995215311,262.67464114832535 694,249 C 734.5311004784689,235.32535885167465 796.407504824341,227.11756853207856 851,226 C 905.592495175659,224.88243146792144 952.9010811811045,230.85508472336036 996,229 C 1039.0989188188955,227.14491527663964 1077.9881704512409,217.46209257447993 1135,264 C 1192.0118295487591,310.5379074255201 1267.146237013931,413.29654497872 1321,437 C 1374.853762986069,460.70345502128 1407.4268814930344,405.35172751064 1440,350 C 1440,350 1440,700 1440,700 Z" stroke="none" stroke-width="0" fill="url(#gradient)" class="transition-all duration-300 ease-in-out delay-150 path-0"></path></svg>